HIERARCHY
ROOT Hips
{
	OFFSET 0.00000 0.00000 0.00000
	CHANNELS 6 Xposition Yposition Zposition Zrotation Yrotation Xrotation 
	JOINT RightUpLegDummy
	{
		OFFSET 0 0 0
		CHANNELS 3 Zrotation Yrotation Xrotation
		JOINT RightUpLeg
		{
			OFFSET -3.52197 -3.41223 0.04002
			CHANNELS 3 Zrotation Yrotation Xrotation
			JOINT RightLeg
			{
				OFFSET 0.00006 -17.42390 1.60435
				CHANNELS 3 Zrotation Yrotation Xrotation
				JOINT RightFoot
				{
					OFFSET 0.06153 -16.50078 -1.63901
					CHANNELS 3 Zrotation Yrotation Xrotation
					JOINT RightToes
					{
						OFFSET 0.00298 -1.73825 3.34613
						CHANNELS 3 Zrotation Yrotation Xrotation
						End Site
						{
							OFFSET 0.00480 -0.05416 3.85043
						}
					}
				}
			}
		}
	}
	JOINT SpineDummy
	{
		OFFSET 0 0 0
		CHANNELS 3 Zrotation Yrotation Xrotation
		JOINT Spine
		{
			OFFSET 0.00000 4.68130 0.00000
			CHANNELS 3 Zrotation Yrotation Xrotation
			JOINT Spine1
			{
				OFFSET -0.00000 10.10138 0.05002
				CHANNELS 3 Zrotation Yrotation Xrotation
				JOINT HEadDummy
				{
					OFFSET 0 0 0
					CHANNELS 3 Zrotation Yrotation Xrotation
					JOINT Head
					{
						OFFSET -0.00000 3.43865 0.00438
						CHANNELS 3 Zrotation Yrotation Xrotation
						End Site
						{
							OFFSET -0.11417 5.02924 0.98962
						}
					}
				}
				JOINT LeftShoulder1Dummy
				{
					OFFSET 0 0 0
					CHANNELS 3 Zrotation Yrotation Xrotation
					JOINT LeftShoulder1
					{
						OFFSET 3.53937 -0.14262 -0.08662
						CHANNELS 3 Zrotation Yrotation Xrotation
						JOINT LeftArm
						{
							OFFSET 4.04833 -0.00133 0.12681
							CHANNELS 3 Zrotation Yrotation Xrotation
							JOINT LeftForeArm
							{
								OFFSET 10.33880 -0.01036 -0.55515
								CHANNELS 3 Zrotation Yrotation Xrotation
								JOINT LeftHand
								{
									OFFSET 8.69677 0.07543 0.40060
									CHANNELS 3 Zrotation Yrotation Xrotation
									End Site
									{
										OFFSET 5.28377 -0.21905 0.59205
									}
								}
							}
						}
					}
				}
				JOINT RightShoulderDummy
				{
					OFFSET 0 0 0
					CHANNELS 3 Zrotation Yrotation Xrotation
					JOINT RightShoulder
					{
						OFFSET -3.53937 -0.14262 -0.08660
						CHANNELS 3 Zrotation Yrotation Xrotation
						JOINT RightArm
						{
							OFFSET -4.04833 -0.00133 0.12683
							CHANNELS 3 Zrotation Yrotation Xrotation
							JOINT RightForeArm
							{
								OFFSET -10.37987 -0.01039 -0.55511
								CHANNELS 3 Zrotation Yrotation Xrotation
								JOINT RightHand
								{
									OFFSET -8.67398 0.07538 0.40058
									CHANNELS 3 Zrotation Yrotation Xrotation
									End Site
									{
										OFFSET -5.24810 -0.21916 0.59204
									}
								}
							}
						}
					}
				}
			}
		}
	}
	JOINT LeftUpLegDummy
	{
		OFFSET 0 0 0
		CHANNELS 3 Zrotation Yrotation Xrotation
		JOINT LeftUpLeg
		{
			OFFSET 3.52197 -3.41223 0.04002
			CHANNELS 3 Zrotation Yrotation Xrotation
			JOINT LeftLeg
			{
				OFFSET -0.00012 -17.42399 1.60337
				CHANNELS 3 Zrotation Yrotation Xrotation
				JOINT LeftFoot
				{
					OFFSET -0.09972 -16.50070 -1.63802
					CHANNELS 3 Zrotation Yrotation Xrotation
					JOINT LeftToes
					{
						OFFSET -0.01575 -1.73823 3.34611
						CHANNELS 3 Zrotation Yrotation Xrotation
						End Site
						{
							OFFSET 0.03150 -0.01868 3.85031
						}
					}
				}
			}
		}
	}
}
MOTION
Frames: 7
Frame Time: 0.033333
29.0347 38.4221 -16.7733 1.1868 -4.9632 -8.6171 0.0000 0.0000 0.0000 -2.6553 -4.6509 -10.2037 -7.7841 -2.9541 62.6399 5.7828 -0.9745 8.4473 0.0000 -0.0000 -0.0000 0.0000 0.0000 0.0000 -1.7212 0.0800 13.8851 2.4037 -0.4113 -1.2453 -0.0000 0.0000 -0.0000 -0.7052 -5.4370 -4.3799 -0.0000 0.0000 -0.0000 -33.8305 -2.4509 2.3736 -41.8172 -8.8012 -22.1169 -8.6935 5.0725 50.6426 14.8937 -3.5934 -1.1257 -0.0000 0.0000 -0.0000 34.9233 5.1789 3.5552 38.8489 5.8361 -15.0681 11.3590 -3.5588 28.4999 -8.9009 2.1553 -0.5597 0.0000 0.0000 0.0000 -5.3260 0.9305 -4.7981 0.9087 4.9632 25.5225 6.2810 0.1596 -12.8396 0.0000 0.0000 -0.0000
29.0090 38.4505 -15.2220 0.3218 -3.7809 -8.7423 0.0000 0.0000 0.0000 -1.2838 -4.1741 -13.5750 -9.2442 -4.1404 59.5649 3.3877 -0.4919 5.8842 0.0000 -0.0000 -0.0000 0.0000 0.0000 0.0000 -1.9348 -0.8594 14.0647 4.0638 -1.7191 -1.3096 -0.0000 0.0000 -0.0000 -1.4162 -5.3518 -4.2442 -0.0000 0.0000 -0.0000 -33.5868 -2.4650 2.3645 -42.3791 -11.3895 -20.7464 -9.1128 5.0557 51.0456 14.8245 -3.7326 -1.1369 -0.0000 0.0000 -0.0000 34.8301 5.1741 3.5450 38.7797 3.5675 -14.9345 11.4385 -3.2861 29.6105 -8.8093 2.2553 -0.5610 0.0000 0.0000 0.0000 -4.7305 1.2260 -1.8769 0.5939 3.6880 25.5586 6.8146 0.3233 -15.2445 0.0000 0.0000 -0.0000
28.9722 38.5095 -13.6581 -0.3969 -2.9255 -8.7057 0.0000 0.0000 0.0000 -0.1733 -3.7913 -16.2184 -10.0816 -5.8348 53.8256 1.5017 -0.1773 3.0878 0.0000 -0.0000 -0.0000 0.0000 0.0000 0.0000 -1.9694 -1.6583 13.9175 5.1230 -2.7829 -1.1940 -0.0000 0.0000 -0.0000 -1.0404 -5.0438 -4.4165 -0.0000 0.0000 -0.0000 -33.2747 -2.5190 2.3669 -42.5766 -14.1852 -19.3748 -9.5572 5.0413 51.3524 14.7367 -4.1787 -1.1837 -0.0000 0.0000 -0.0000 35.0445 5.2134 3.5801 38.6500 1.2092 -15.2524 11.4095 -2.6156 29.2286 -9.4657 2.4199 -0.6166 0.0000 0.0000 0.0000 -3.9923 1.5964 1.2539 0.1466 2.6544 24.6202 7.1210 0.4567 -17.0277 0.0000 0.0000 -0.0000
28.9272 38.5333 -12.0955 -0.9907 -2.4669 -8.4398 0.0000 0.0000 0.0000 0.7652 -3.6048 -17.8672 -9.6656 -7.7309 45.2329 0.7195 -0.0720 0.8778 0.0000 -0.0000 -0.0000 0.0000 0.0000 0.0000 -1.8162 -2.2883 13.4358 5.6913 -3.5744 -0.9762 -0.0000 0.0000 -0.0000 -0.2727 -4.5183 -4.5825 -0.0000 0.0000 -0.0000 -33.1250 -2.5882 2.3849 -42.3034 -16.9659 -18.1019 -10.0328 5.0438 51.0922 15.0444 -4.5018 -1.2490 -0.0000 0.0000 -0.0000 35.2870 5.2464 3.6152 38.6237 -0.8289 -16.0956 11.2243 -2.2812 28.0348 -10.1482 2.4890 -0.6680 0.0000 0.0000 0.0000 -3.2425 2.0515 4.2489 -0.1374 2.1397 23.4176 7.7054 0.5823 -18.3375 0.0000 0.0000 -0.0000
28.8675 38.5664 -10.5394 -1.3354 -2.3854 -8.0632 0.0000 0.0000 0.0000 1.4890 -3.3010 -18.1971 -7.7965 -9.3329 33.6461 0.5608 -0.0567 1.1828 0.0000 -0.0000 -0.0000 0.0000 0.0000 0.0000 -1.7910 -2.6571 12.7325 6.1178 -4.0769 -0.6480 -0.0000 0.0000 -0.0000 0.4909 -4.0801 -4.5286 -0.0000 0.0000 -0.0000 -33.1136 -2.6727 2.4172 -41.8462 -19.5272 -16.8449 -10.5636 5.0705 50.0059 15.5731 -4.5679 -1.3031 -0.0000 0.0000 -0.0000 35.2048 5.2287 3.6006 38.8744 -2.2624 -17.4505 10.8123 -2.6631 26.9380 -10.4009 2.3807 -0.6765 0.0000 0.0000 0.0000 -2.7542 2.4169 7.4555 -0.2119 2.1674 21.4970 8.2849 0.6600 -18.8830 0.0000 0.0000 -0.0000
28.7908 38.7069 -9.0173 -1.3990 -2.6580 -7.6527 0.0000 0.0000 0.0000 1.9283 -2.5697 -17.0727 -5.1547 -10.8084 19.4788 0.6694 -0.0751 3.1288 0.0000 -0.0000 -0.0000 0.0000 0.0000 0.0000 -1.9690 -2.7857 11.9035 6.4183 -4.3079 -0.1627 -0.0000 0.0000 -0.0000 1.3788 -3.8484 -4.4162 -0.0000 0.0000 -0.0000 -33.0448 -2.7661 2.4493 -41.5313 -21.6783 -15.6747 -11.0630 5.1143 48.3114 16.0648 -4.7130 -1.3652 -0.0000 0.0000 -0.0000 35.0326 5.2038 3.5750 39.0933 -3.0811 -18.9523 10.2912 -3.6477 26.3332 -10.2478 2.1474 -0.6475 0.0000 0.0000 0.0000 -2.5289 2.6880 11.1567 -0.3368 2.3575 18.0933 8.0311 0.5892 -18.1538 0.0000 0.0000 -0.0000
28.6884 38.8395 -7.4969 -1.3595 -2.9779 -7.1375 0.0000 0.0000 0.0000 1.9875 -1.1143 -15.1432 -2.0431 -12.1105 5.4617 1.6444 -0.1924 3.1697 0.0000 -0.0000 -0.0000 0.0000 0.0000 0.0000 -2.1912 -2.8911 10.8264 6.5571 -4.4663 0.4278 -0.0000 0.0000 -0.0000 2.3355 -3.6967 -4.2731 -0.0000 0.0000 -0.0000 -32.9053 -2.8212 2.4620 -41.4046 -23.3145 -14.8242 -11.4048 5.1638 46.4156 16.4603 -5.0671 -1.4481 -0.0000 0.0000 -0.0000 35.1568 5.2305 3.5970 38.9043 -3.5338 -20.0869 9.8843 -4.8597 26.3317 -9.9771 1.9339 -0.6130 0.0000 0.0000 0.0000 -2.2362 3.1289 14.4892 -0.6523 2.0227 14.9903 7.0508 0.4404 -16.8450 0.0000 0.0000 -0.0000
